<svg xmlns="http://www.w3.org/2000/svg" xmlns:xlink="http://www.w3.org/1999/xlink" width="500" zoomAndPan="magnify" viewBox="0 0 375 374.999991" height="500" preserveAspectRatio="xMidYMid meet" version="1.0"><defs><g/><clipPath id="f54e1192bf"><path d="M 115.046875 96.46875 L 259.796875 96.46875 L 259.796875 207.46875 L 115.046875 207.46875 Z M 115.046875 96.46875 " clip-rule="nonzero"/></clipPath><clipPath id="bec40ca2f3"><path d="M 132.808594 132.363281 L 152.308594 132.363281 L 152.308594 171.363281 L 132.808594 171.363281 Z M 132.808594 132.363281 " clip-rule="nonzero"/></clipPath><clipPath id="d0544af999"><path d="M 152.429688 166.992188 L 152.429688 171.605469 C 141.59375 171.605469 132.808594 162.824219 132.808594 151.988281 C 132.808594 141.152344 141.59375 132.367188 152.429688 132.367188 L 152.429688 136.984375 C 144.144531 136.984375 137.425781 143.699219 137.425781 151.988281 C 137.425781 160.273438 144.140625 166.992188 152.429688 166.992188 Z M 152.429688 166.992188 " clip-rule="nonzero"/></clipPath><clipPath id="d76c58e0fd"><path d="M 222.636719 132.363281 L 242.019531 132.363281 L 242.019531 171.363281 L 222.636719 171.363281 Z M 222.636719 132.363281 " clip-rule="nonzero"/></clipPath><clipPath id="983f0b8013"><path d="M 222.519531 166.992188 L 222.519531 171.605469 C 233.355469 171.605469 242.136719 162.824219 242.136719 151.988281 C 242.136719 141.152344 233.355469 132.367188 222.519531 132.367188 L 222.519531 136.984375 C 230.804688 136.984375 237.523438 143.699219 237.523438 151.988281 C 237.523438 160.273438 230.804688 166.992188 222.519531 166.992188 Z M 222.519531 166.992188 " clip-rule="nonzero"/></clipPath></defs><rect x="-37.5" width="450" fill="#ffffff" y="-37.499999" height="449.999989" fill-opacity="1"/><rect x="-37.5" width="450" fill="#000000" y="-37.499999" height="449.999989" fill-opacity="1"/><g clip-path="url(#f54e1192bf)"><path fill="#ffffff" d="M 122.332031 96.46875 C 118.234375 96.46875 115.09375 99.84375 115.09375 103.710938 L 115.09375 200.253906 C 115.09375 204.117188 118.234375 207.492188 122.332031 207.492188 L 252.664062 207.492188 C 256.765625 207.492188 259.90625 204.117188 259.90625 200.253906 L 259.90625 103.710938 C 259.90625 99.84375 256.765625 96.46875 252.664062 96.46875 Z M 122.332031 101.296875 L 252.664062 101.296875 C 254.117188 101.296875 255.078125 102.503906 255.078125 103.710938 L 255.078125 200.253906 C 255.078125 201.703125 254.117188 202.667969 252.664062 202.667969 L 122.332031 202.667969 C 120.882812 202.667969 119.921875 201.460938 119.921875 200.253906 L 119.921875 103.710938 C 119.921875 102.257812 120.882812 101.296875 122.332031 101.296875 Z M 127.160156 106.125 C 125.707031 106.125 124.746094 107.085938 124.746094 108.539062 L 124.746094 113.363281 C 124.746094 114.816406 125.707031 115.777344 127.160156 115.777344 C 128.613281 115.777344 129.574219 114.816406 129.574219 113.363281 L 129.574219 108.539062 C 129.574219 107.085938 128.613281 106.125 127.160156 106.125 Z M 139.226562 106.125 C 137.777344 106.125 136.816406 107.085938 136.816406 108.539062 L 136.816406 113.363281 C 136.816406 114.816406 137.777344 115.777344 139.226562 115.777344 C 140.679688 115.777344 141.640625 114.816406 141.640625 113.363281 L 141.640625 108.539062 C 141.640625 107.085938 140.679688 106.125 139.226562 106.125 Z M 151.296875 106.125 C 149.84375 106.125 148.882812 107.085938 148.882812 108.539062 L 148.882812 113.363281 C 148.882812 114.816406 149.84375 115.777344 151.296875 115.777344 C 152.75 115.777344 153.710938 114.816406 153.710938 113.363281 L 153.710938 108.539062 C 153.710938 107.085938 152.75 106.125 151.296875 106.125 Z M 163.363281 106.125 C 161.914062 106.125 160.949219 107.085938 160.949219 108.539062 L 160.949219 113.363281 C 160.949219 114.816406 161.914062 115.777344 163.363281 115.777344 C 164.816406 115.777344 165.777344 114.816406 165.777344 113.363281 L 165.777344 108.539062 C 165.777344 107.085938 164.816406 106.125 163.363281 106.125 Z M 175.433594 106.125 C 173.980469 106.125 173.019531 107.085938 173.019531 108.539062 L 173.019531 113.363281 C 173.019531 114.816406 173.980469 115.777344 175.433594 115.777344 C 176.882812 115.777344 177.84375 114.816406 177.84375 113.363281 L 177.84375 108.539062 C 177.84375 107.085938 176.882812 106.125 175.433594 106.125 Z M 187.5 106.125 C 186.046875 106.125 185.085938 107.085938 185.085938 108.539062 L 185.085938 113.363281 C 185.085938 114.816406 186.046875 115.777344 187.5 115.777344 C 188.953125 115.777344 189.914062 114.816406 189.914062 113.363281 L 189.914062 108.539062 C 189.914062 107.085938 188.953125 106.125 187.5 106.125 Z M 199.566406 106.125 C 198.117188 106.125 197.152344 107.085938 197.152344 108.539062 L 197.152344 113.363281 C 197.152344 114.816406 198.117188 115.777344 199.566406 115.777344 C 201.019531 115.777344 201.980469 114.816406 201.980469 113.363281 L 201.980469 108.539062 C 201.980469 107.085938 201.019531 106.125 199.566406 106.125 Z M 211.636719 106.125 C 210.183594 106.125 209.222656 107.085938 209.222656 108.539062 L 209.222656 113.363281 C 209.222656 114.816406 210.183594 115.777344 211.636719 115.777344 C 213.085938 115.777344 214.046875 114.816406 214.046875 113.363281 L 214.046875 108.539062 C 214.046875 107.085938 213.085938 106.125 211.636719 106.125 Z M 223.703125 106.125 C 222.25 106.125 221.289062 107.085938 221.289062 108.539062 L 221.289062 113.363281 C 221.289062 114.816406 222.25 115.777344 223.703125 115.777344 C 225.15625 115.777344 226.117188 114.816406 226.117188 113.363281 L 226.117188 108.539062 C 226.117188 107.085938 225.15625 106.125 223.703125 106.125 Z M 235.769531 106.125 C 234.320312 106.125 233.355469 107.085938 233.355469 108.539062 L 233.355469 113.363281 C 233.355469 114.816406 234.320312 115.777344 235.769531 115.777344 C 237.222656 115.777344 238.183594 114.816406 238.183594 113.363281 L 238.183594 108.539062 C 238.183594 107.085938 237.222656 106.125 235.769531 106.125 Z M 247.839844 106.125 C 246.386719 106.125 245.425781 107.085938 245.425781 108.539062 L 245.425781 113.363281 C 245.425781 114.816406 246.386719 115.777344 247.839844 115.777344 C 249.289062 115.777344 250.25 114.816406 250.25 113.363281 L 250.25 108.539062 C 250.25 107.085938 249.289062 106.125 247.839844 106.125 Z M 127.160156 120.605469 C 125.707031 120.605469 124.746094 121.566406 124.746094 123.019531 C 124.746094 124.472656 125.707031 125.433594 127.160156 125.433594 L 148.882812 125.433594 L 148.882812 178.53125 L 127.160156 178.53125 C 125.707031 178.53125 124.746094 179.492188 124.746094 180.945312 C 124.746094 182.394531 125.707031 183.359375 127.160156 183.359375 L 247.839844 183.359375 C 249.289062 183.359375 250.25 182.394531 250.25 180.945312 C 250.25 179.492188 249.289062 178.53125 247.839844 178.53125 L 226.117188 178.53125 L 226.117188 125.433594 L 247.839844 125.433594 C 249.289062 125.433594 250.25 124.472656 250.25 123.019531 C 250.25 121.566406 249.289062 120.605469 247.839844 120.605469 Z M 153.710938 125.433594 L 221.289062 125.433594 L 221.289062 178.53125 L 153.710938 178.53125 Z M 127.160156 188.183594 C 125.707031 188.183594 124.746094 189.148438 124.746094 190.597656 L 124.746094 195.425781 C 124.746094 196.878906 125.707031 197.839844 127.160156 197.839844 C 128.613281 197.839844 129.574219 196.878906 129.574219 195.425781 L 129.574219 190.597656 C 129.574219 189.148438 128.613281 188.183594 127.160156 188.183594 Z M 139.226562 188.183594 C 137.777344 188.183594 136.816406 189.148438 136.816406 190.597656 L 136.816406 195.425781 C 136.816406 196.878906 137.777344 197.839844 139.226562 197.839844 C 140.679688 197.839844 141.640625 196.878906 141.640625 195.425781 L 141.640625 190.597656 C 141.640625 189.148438 140.679688 188.183594 139.226562 188.183594 Z M 151.296875 188.183594 C 149.84375 188.183594 148.882812 189.148438 148.882812 190.597656 L 148.882812 195.425781 C 148.882812 196.878906 149.84375 197.839844 151.296875 197.839844 C 152.75 197.839844 153.710938 196.878906 153.710938 195.425781 L 153.710938 190.597656 C 153.710938 189.148438 152.75 188.183594 151.296875 188.183594 Z M 163.363281 188.183594 C 161.914062 188.183594 160.949219 189.148438 160.949219 190.597656 L 160.949219 195.425781 C 160.949219 196.878906 161.914062 197.839844 163.363281 197.839844 C 164.816406 197.839844 165.777344 196.878906 165.777344 195.425781 L 165.777344 190.597656 C 165.777344 189.148438 164.816406 188.183594 163.363281 188.183594 Z M 175.433594 188.183594 C 173.980469 188.183594 173.019531 189.148438 173.019531 190.597656 L 173.019531 195.425781 C 173.019531 196.878906 173.980469 197.839844 175.433594 197.839844 C 176.882812 197.839844 177.84375 196.878906 177.84375 195.425781 L 177.84375 190.597656 C 177.84375 189.148438 176.882812 188.183594 175.433594 188.183594 Z M 187.5 188.183594 C 186.046875 188.183594 185.085938 189.148438 185.085938 190.597656 L 185.085938 195.425781 C 185.085938 196.878906 186.046875 197.839844 187.5 197.839844 C 188.953125 197.839844 189.914062 196.878906 189.914062 195.425781 L 189.914062 190.597656 C 189.914062 189.148438 188.953125 188.183594 187.5 188.183594 Z M 199.566406 188.183594 C 198.117188 188.183594 197.152344 189.148438 197.152344 190.597656 L 197.152344 195.425781 C 197.152344 196.878906 198.117188 197.839844 199.566406 197.839844 C 201.019531 197.839844 201.980469 196.878906 201.980469 195.425781 L 201.980469 190.597656 C 201.980469 189.148438 201.019531 188.183594 199.566406 188.183594 Z M 211.636719 188.183594 C 210.183594 188.183594 209.222656 189.148438 209.222656 190.597656 L 209.222656 195.425781 C 209.222656 196.878906 210.183594 197.839844 211.636719 197.839844 C 213.085938 197.839844 214.046875 196.878906 214.046875 195.425781 L 214.046875 190.597656 C 214.046875 189.148438 213.085938 188.183594 211.636719 188.183594 Z M 223.703125 188.183594 C 222.25 188.183594 221.289062 189.148438 221.289062 190.597656 L 221.289062 195.425781 C 221.289062 196.878906 222.25 197.839844 223.703125 197.839844 C 225.15625 197.839844 226.117188 196.878906 226.117188 195.425781 L 226.117188 190.597656 C 226.117188 189.148438 225.15625 188.183594 223.703125 188.183594 Z M 235.769531 188.183594 C 234.320312 188.183594 233.355469 189.148438 233.355469 190.597656 L 233.355469 195.425781 C 233.355469 196.878906 234.320312 197.839844 235.769531 197.839844 C 237.222656 197.839844 238.183594 196.878906 238.183594 195.425781 L 238.183594 190.597656 C 238.183594 189.148438 237.222656 188.183594 235.769531 188.183594 Z M 247.839844 188.183594 C 246.386719 188.183594 245.425781 189.148438 245.425781 190.597656 L 245.425781 195.425781 C 245.425781 196.878906 246.386719 197.839844 247.839844 197.839844 C 249.289062 197.839844 250.25 196.878906 250.25 195.425781 L 250.25 190.597656 C 250.25 189.148438 249.289062 188.183594 247.839844 188.183594 Z M 247.839844 188.183594 " fill-opacity="1" fill-rule="nonzero"/></g><g clip-path="url(#bec40ca2f3)"><g clip-path="url(#d0544af999)"><path fill="#ffffff" d="M 132.808594 132.367188 L 132.808594 171.363281 L 152.308594 171.363281 L 152.308594 132.367188 Z M 132.808594 132.367188 " fill-opacity="1" fill-rule="nonzero"/></g></g><g clip-path="url(#d76c58e0fd)"><g clip-path="url(#983f0b8013)"><path fill="#ffffff" d="M 242.019531 132.367188 L 242.019531 171.363281 L 222.636719 171.363281 L 222.636719 132.367188 Z M 242.019531 132.367188 " fill-opacity="1" fill-rule="nonzero"/></g></g><path stroke-linecap="round" transform="matrix(-0.596169, 0.455064, -0.455064, -0.596169, 223.88542, 126.475772)" fill="none" stroke-linejoin="miter" d="M 2.999973 3.002792 L 114.561294 2.999398 " stroke="#ffffff" stroke-width="6" stroke-opacity="1" stroke-miterlimit="4"/><g fill="#ffffff" fill-opacity="1"><g transform="translate(51.983157, 281.195182)"><g><path d="M 15.453125 0 L 10.640625 0 C 9.992188 0 9.671875 -0.328125 9.671875 -0.984375 L 9.671875 -30.796875 L 1.71875 -30.796875 C 1.0625 -30.796875 0.734375 -31.125 0.734375 -31.78125 L 0.734375 -35.765625 C 0.734375 -36.421875 1.0625 -36.75 1.71875 -36.75 L 24.40625 -36.75 C 25.0625 -36.75 25.390625 -36.421875 25.390625 -35.765625 L 25.390625 -31.78125 C 25.390625 -31.125 25.0625 -30.796875 24.40625 -30.796875 L 16.4375 -30.796875 L 16.4375 -0.984375 C 16.4375 -0.328125 16.109375 0 15.453125 0 Z M 15.453125 0 "/></g></g></g><g fill="#ffffff" fill-opacity="1"><g transform="translate(80.777954, 281.195182)"><g><path d="M 9.265625 0 L 4.671875 0 C 4.015625 0 3.6875 -0.328125 3.6875 -0.984375 L 3.6875 -35.90625 C 3.6875 -36.789062 3.925781 -37.328125 4.40625 -37.515625 C 4.894531 -37.703125 5.453125 -37.488281 6.078125 -36.875 L 27.03125 -15.09375 L 27.03125 -35.765625 C 27.03125 -36.421875 27.359375 -36.75 28.015625 -36.75 L 32.640625 -36.75 C 33.285156 -36.75 33.609375 -36.421875 33.609375 -35.765625 L 33.609375 -0.859375 C 33.609375 0.015625 33.351562 0.539062 32.84375 0.71875 C 32.332031 0.894531 31.742188 0.65625 31.078125 0 L 10.234375 -22.234375 L 10.234375 -0.984375 C 10.234375 -0.328125 9.910156 0 9.265625 0 Z M 9.265625 0 "/></g></g></g><g fill="#ffffff" fill-opacity="1"><g transform="translate(120.745195, 281.195182)"><g><path d="M 14.40625 0 L 4.625 0 C 3.96875 0 3.640625 -0.328125 3.640625 -0.984375 L 3.640625 -35.765625 C 3.640625 -36.421875 3.96875 -36.75 4.625 -36.75 L 14.40625 -36.75 C 18.582031 -36.75 22.117188 -36.023438 25.015625 -34.578125 C 27.910156 -33.140625 30.109375 -31.050781 31.609375 -28.3125 C 33.117188 -25.582031 33.875 -22.28125 33.875 -18.40625 C 33.875 -14.570312 33.128906 -11.28125 31.640625 -8.53125 C 30.148438 -5.789062 27.957031 -3.679688 25.0625 -2.203125 C 22.164062 -0.734375 18.613281 0 14.40625 0 Z M 10.40625 -30.796875 L 10.40625 -5.953125 L 14.375 -5.953125 C 17.09375 -5.953125 19.40625 -6.441406 21.3125 -7.421875 C 23.21875 -8.410156 24.664062 -9.835938 25.65625 -11.703125 C 26.65625 -13.566406 27.15625 -15.820312 27.15625 -18.46875 C 27.15625 -21.132812 26.65625 -23.378906 25.65625 -25.203125 C 24.664062 -27.035156 23.21875 -28.425781 21.3125 -29.375 C 19.40625 -30.320312 17.09375 -30.796875 14.375 -30.796875 Z M 10.40625 -30.796875 "/></g></g></g><g fill="#ffffff" fill-opacity="1"><g transform="translate(159.468395, 281.195182)"><g/></g></g><g fill="#ffffff" fill-opacity="1"><g transform="translate(176.803652, 281.195182)"><g><path d="M 9.375 0 L 4.625 0 C 3.96875 0 3.640625 -0.328125 3.640625 -0.984375 L 3.640625 -35.765625 C 3.640625 -36.421875 3.96875 -36.75 4.625 -36.75 L 24.421875 -36.75 C 25.078125 -36.75 25.40625 -36.421875 25.40625 -35.765625 L 25.40625 -31.78125 C 25.40625 -31.125 25.078125 -30.796875 24.421875 -30.796875 L 10.359375 -30.796875 L 10.359375 -17.796875 L 22.59375 -17.796875 C 23.238281 -17.796875 23.5625 -17.46875 23.5625 -16.8125 L 23.5625 -13.09375 C 23.5625 -12.4375 23.238281 -12.109375 22.59375 -12.109375 L 10.359375 -12.109375 L 10.359375 -0.984375 C 10.359375 -0.328125 10.03125 0 9.375 0 Z M 9.375 0 "/></g></g></g><g fill="#ffffff" fill-opacity="1"><g transform="translate(206.340084, 281.195182)"><g><path d="M 9.375 0 L 4.625 0 C 3.96875 0 3.640625 -0.328125 3.640625 -0.984375 L 3.640625 -35.765625 C 3.640625 -36.421875 3.96875 -36.75 4.625 -36.75 L 9.375 -36.75 C 10.03125 -36.75 10.359375 -36.421875 10.359375 -35.765625 L 10.359375 -0.984375 C 10.359375 -0.328125 10.03125 0 9.375 0 Z M 9.375 0 "/></g></g></g><g fill="#ffffff" fill-opacity="1"><g transform="translate(222.981555, 281.195182)"><g><path d="M 21.3125 0 L 4.625 0 C 3.96875 0 3.640625 -0.328125 3.640625 -0.984375 L 3.640625 -35.765625 C 3.640625 -36.421875 3.96875 -36.75 4.625 -36.75 L 9.375 -36.75 C 10.03125 -36.75 10.359375 -36.421875 10.359375 -35.765625 L 10.359375 -5.953125 L 21.3125 -5.953125 C 21.96875 -5.953125 22.296875 -5.628906 22.296875 -4.984375 L 22.296875 -0.984375 C 22.296875 -0.328125 21.96875 0 21.3125 0 Z M 21.3125 0 "/></g></g></g><g fill="#ffffff" fill-opacity="1"><g transform="translate(248.714085, 281.195182)"><g><path d="M 9.3125 0 L 4.671875 0 C 4.015625 0 3.6875 -0.328125 3.6875 -0.984375 L 3.6875 -35.953125 C 3.6875 -36.578125 3.804688 -37.03125 4.046875 -37.3125 C 4.285156 -37.59375 4.59375 -37.691406 4.96875 -37.609375 C 5.34375 -37.523438 5.710938 -37.238281 6.078125 -36.75 L 21.40625 -16.40625 L 36.796875 -36.75 C 37.160156 -37.238281 37.523438 -37.523438 37.890625 -37.609375 C 38.265625 -37.691406 38.570312 -37.59375 38.8125 -37.3125 C 39.0625 -37.03125 39.1875 -36.578125 39.1875 -35.953125 L 39.1875 -0.984375 C 39.1875 -0.328125 38.859375 0 38.203125 0 L 33.5625 0 C 32.914062 0 32.59375 -0.328125 32.59375 -0.984375 L 32.59375 -20.53125 L 22.109375 -6.921875 C 21.898438 -6.628906 21.671875 -6.484375 21.421875 -6.484375 C 21.179688 -6.484375 20.945312 -6.628906 20.71875 -6.921875 L 10.28125 -20.484375 L 10.28125 -0.984375 C 10.28125 -0.328125 9.957031 0 9.3125 0 Z M 9.3125 0 "/></g></g></g><g fill="#ffffff" fill-opacity="1"><g transform="translate(294.231676, 281.195182)"><g><path d="M 14.359375 0.859375 C 12.597656 0.859375 10.789062 0.679688 8.9375 0.328125 C 7.082031 -0.015625 5.019531 -0.625 2.75 -1.5 C 2.144531 -1.789062 1.960938 -2.234375 2.203125 -2.828125 L 3.6875 -6.796875 C 3.925781 -7.367188 4.359375 -7.519531 4.984375 -7.25 C 6.742188 -6.414062 8.398438 -5.832031 9.953125 -5.5 C 11.515625 -5.164062 12.925781 -5 14.1875 -5 C 15.9375 -5 17.347656 -5.34375 18.421875 -6.03125 C 19.492188 -6.71875 20.03125 -7.738281 20.03125 -9.09375 C 20.03125 -9.90625 19.785156 -10.632812 19.296875 -11.28125 C 18.804688 -11.925781 18.144531 -12.53125 17.3125 -13.09375 C 16.488281 -13.664062 15.550781 -14.222656 14.5 -14.765625 C 13.457031 -15.316406 12.375 -15.898438 11.25 -16.515625 C 10.132812 -17.117188 9.0625 -17.765625 8.03125 -18.453125 C 7 -19.148438 6.070312 -19.925781 5.25 -20.78125 C 4.425781 -21.632812 3.773438 -22.625 3.296875 -23.75 C 2.816406 -24.875 2.578125 -26.171875 2.578125 -27.640625 C 2.578125 -29.410156 2.898438 -30.925781 3.546875 -32.1875 C 4.191406 -33.445312 5.066406 -34.472656 6.171875 -35.265625 C 7.285156 -36.066406 8.546875 -36.65625 9.953125 -37.03125 C 11.367188 -37.414062 12.851562 -37.609375 14.40625 -37.609375 C 15.851562 -37.609375 17.429688 -37.429688 19.140625 -37.078125 C 20.859375 -36.734375 22.539062 -36.25 24.1875 -35.625 C 24.789062 -35.382812 24.96875 -34.960938 24.71875 -34.359375 L 23.453125 -30.546875 C 23.191406 -29.941406 22.765625 -29.757812 22.171875 -30 C 20.898438 -30.539062 19.601562 -30.960938 18.28125 -31.265625 C 16.957031 -31.566406 15.703125 -31.71875 14.515625 -31.71875 C 13.578125 -31.71875 12.71875 -31.597656 11.9375 -31.359375 C 11.15625 -31.128906 10.53125 -30.75 10.0625 -30.21875 C 9.601562 -29.6875 9.375 -28.984375 9.375 -28.109375 C 9.375 -27.316406 9.578125 -26.601562 9.984375 -25.96875 C 10.390625 -25.34375 10.953125 -24.757812 11.671875 -24.21875 C 12.390625 -23.6875 13.210938 -23.171875 14.140625 -22.671875 C 15.066406 -22.179688 16.054688 -21.675781 17.109375 -21.15625 C 18.253906 -20.539062 19.398438 -19.882812 20.546875 -19.1875 C 21.703125 -18.5 22.753906 -17.703125 23.703125 -16.796875 C 24.648438 -15.898438 25.410156 -14.847656 25.984375 -13.640625 C 26.554688 -12.441406 26.84375 -11.035156 26.84375 -9.421875 C 26.84375 -7.609375 26.5 -6.050781 25.8125 -4.75 C 25.125 -3.445312 24.191406 -2.378906 23.015625 -1.546875 C 21.835938 -0.722656 20.5 -0.117188 19 0.265625 C 17.507812 0.660156 15.960938 0.859375 14.359375 0.859375 Z M 14.359375 0.859375 "/></g></g></g></svg>