<svg xmlns="http://www.w3.org/2000/svg" xmlns:xlink="http://www.w3.org/1999/xlink" width="500" zoomAndPan="magnify" viewBox="0 0 375 374.999991" height="500" preserveAspectRatio="xMidYMid meet" version="1.0"><defs><g/><clipPath id="f6542fe383"><path d="M 115.046875 96.46875 L 259.796875 96.46875 L 259.796875 207.46875 L 115.046875 207.46875 Z M 115.046875 96.46875 " clip-rule="nonzero"/></clipPath><clipPath id="3588844aaa"><path d="M 132.808594 132.363281 L 152.308594 132.363281 L 152.308594 171.363281 L 132.808594 171.363281 Z M 132.808594 132.363281 " clip-rule="nonzero"/></clipPath><clipPath id="bafa372f2b"><path d="M 152.429688 166.992188 L 152.429688 171.605469 C 141.59375 171.605469 132.808594 162.824219 132.808594 151.988281 C 132.808594 141.152344 141.59375 132.367188 152.429688 132.367188 L 152.429688 136.984375 C 144.144531 136.984375 137.425781 143.699219 137.425781 151.988281 C 137.425781 160.273438 144.140625 166.992188 152.429688 166.992188 Z M 152.429688 166.992188 " clip-rule="nonzero"/></clipPath><clipPath id="1ab72cbcc5"><path d="M 222.636719 132.363281 L 242.019531 132.363281 L 242.019531 171.363281 L 222.636719 171.363281 Z M 222.636719 132.363281 " clip-rule="nonzero"/></clipPath><clipPath id="3ae1e48bf0"><path d="M 222.519531 166.992188 L 222.519531 171.605469 C 233.355469 171.605469 242.136719 162.824219 242.136719 151.988281 C 242.136719 141.152344 233.355469 132.367188 222.519531 132.367188 L 222.519531 136.984375 C 230.804688 136.984375 237.523438 143.699219 237.523438 151.988281 C 237.523438 160.273438 230.804688 166.992188 222.519531 166.992188 Z M 222.519531 166.992188 " clip-rule="nonzero"/></clipPath></defs><rect x="-37.5" width="450" fill="#ffffff" y="-37.499999" height="449.999989" fill-opacity="1"/><rect x="-37.5" width="450" fill="#ffffff" y="-37.499999" height="449.999989" fill-opacity="1"/><g fill="#000000" fill-opacity="1"><g transform="translate(51.983157, 281.195197)"><g><path d="M 15.453125 0 L 10.640625 0 C 9.992188 0 9.671875 -0.328125 9.671875 -0.984375 L 9.671875 -30.796875 L 1.71875 -30.796875 C 1.0625 -30.796875 0.734375 -31.125 0.734375 -31.78125 L 0.734375 -35.765625 C 0.734375 -36.421875 1.0625 -36.75 1.71875 -36.75 L 24.40625 -36.75 C 25.0625 -36.75 25.390625 -36.421875 25.390625 -35.765625 L 25.390625 -31.78125 C 25.390625 -31.125 25.0625 -30.796875 24.40625 -30.796875 L 16.4375 -30.796875 L 16.4375 -0.984375 C 16.4375 -0.328125 16.109375 0 15.453125 0 Z M 15.453125 0 "/></g></g></g><g fill="#000000" fill-opacity="1"><g transform="translate(80.777954, 281.195197)"><g><path d="M 9.265625 0 L 4.671875 0 C 4.015625 0 3.6875 -0.328125 3.6875 -0.984375 L 3.6875 -35.90625 C 3.6875 -36.789062 3.925781 -37.328125 4.40625 -37.515625 C 4.894531 -37.703125 5.453125 -37.488281 6.078125 -36.875 L 27.03125 -15.09375 L 27.03125 -35.765625 C 27.03125 -36.421875 27.359375 -36.75 28.015625 -36.75 L 32.640625 -36.75 C 33.285156 -36.75 33.609375 -36.421875 33.609375 -35.765625 L 33.609375 -0.859375 C 33.609375 0.015625 33.351562 0.539062 32.84375 0.71875 C 32.332031 0.894531 31.742188 0.65625 31.078125 0 L 10.234375 -22.234375 L 10.234375 -0.984375 C 10.234375 -0.328125 9.910156 0 9.265625 0 Z M 9.265625 0 "/></g></g></g><g fill="#000000" fill-opacity="1"><g transform="translate(120.745195, 281.195197)"><g><path d="M 14.40625 0 L 4.625 0 C 3.96875 0 3.640625 -0.328125 3.640625 -0.984375 L 3.640625 -35.765625 C 3.640625 -36.421875 3.96875 -36.75 4.625 -36.75 L 14.40625 -36.75 C 18.582031 -36.75 22.117188 -36.023438 25.015625 -34.578125 C 27.910156 -33.140625 30.109375 -31.050781 31.609375 -28.3125 C 33.117188 -25.582031 33.875 -22.28125 33.875 -18.40625 C 33.875 -14.570312 33.128906 -11.28125 31.640625 -8.53125 C 30.148438 -5.789062 27.957031 -3.679688 25.0625 -2.203125 C 22.164062 -0.734375 18.613281 0 14.40625 0 Z M 10.40625 -30.796875 L 10.40625 -5.953125 L 14.375 -5.953125 C 17.09375 -5.953125 19.40625 -6.441406 21.3125 -7.421875 C 23.21875 -8.410156 24.664062 -9.835938 25.65625 -11.703125 C 26.65625 -13.566406 27.15625 -15.820312 27.15625 -18.46875 C 27.15625 -21.132812 26.65625 -23.378906 25.65625 -25.203125 C 24.664062 -27.035156 23.21875 -28.425781 21.3125 -29.375 C 19.40625 -30.320312 17.09375 -30.796875 14.375 -30.796875 Z M 10.40625 -30.796875 "/></g></g></g><g fill="#000000" fill-opacity="1"><g transform="translate(159.468395, 281.195197)"><g/></g></g><g fill="#000000" fill-opacity="1"><g transform="translate(176.803652, 281.195197)"><g><path d="M 9.375 0 L 4.625 0 C 3.96875 0 3.640625 -0.328125 3.640625 -0.984375 L 3.640625 -35.765625 C 3.640625 -36.421875 3.96875 -36.75 4.625 -36.75 L 24.421875 -36.75 C 25.078125 -36.75 25.40625 -36.421875 25.40625 -35.765625 L 25.40625 -31.78125 C 25.40625 -31.125 25.078125 -30.796875 24.421875 -30.796875 L 10.359375 -30.796875 L 10.359375 -17.796875 L 22.59375 -17.796875 C 23.238281 -17.796875 23.5625 -17.46875 23.5625 -16.8125 L 23.5625 -13.09375 C 23.5625 -12.4375 23.238281 -12.109375 22.59375 -12.109375 L 10.359375 -12.109375 L 10.359375 -0.984375 C 10.359375 -0.328125 10.03125 0 9.375 0 Z M 9.375 0 "/></g></g></g><g fill="#000000" fill-opacity="1"><g transform="translate(206.340084, 281.195197)"><g><path d="M 9.375 0 L 4.625 0 C 3.96875 0 3.640625 -0.328125 3.640625 -0.984375 L 3.640625 -35.765625 C 3.640625 -36.421875 3.96875 -36.75 4.625 -36.75 L 9.375 -36.75 C 10.03125 -36.75 10.359375 -36.421875 10.359375 -35.765625 L 10.359375 -0.984375 C 10.359375 -0.328125 10.03125 0 9.375 0 Z M 9.375 0 "/></g></g></g><g fill="#000000" fill-opacity="1"><g transform="translate(222.981555, 281.195197)"><g><path d="M 21.3125 0 L 4.625 0 C 3.96875 0 3.640625 -0.328125 3.640625 -0.984375 L 3.640625 -35.765625 C 3.640625 -36.421875 3.96875 -36.75 4.625 -36.75 L 9.375 -36.75 C 10.03125 -36.75 10.359375 -36.421875 10.359375 -35.765625 L 10.359375 -5.953125 L 21.3125 -5.953125 C 21.96875 -5.953125 22.296875 -5.628906 22.296875 -4.984375 L 22.296875 -0.984375 C 22.296875 -0.328125 21.96875 0 21.3125 0 Z M 21.3125 0 "/></g></g></g><g fill="#000000" fill-opacity="1"><g transform="translate(248.714085, 281.195197)"><g><path d="M 9.3125 0 L 4.671875 0 C 4.015625 0 3.6875 -0.328125 3.6875 -0.984375 L 3.6875 -35.953125 C 3.6875 -36.578125 3.804688 -37.03125 4.046875 -37.3125 C 4.285156 -37.59375 4.59375 -37.691406 4.96875 -37.609375 C 5.34375 -37.523438 5.710938 -37.238281 6.078125 -36.75 L 21.40625 -16.40625 L 36.796875 -36.75 C 37.160156 -37.238281 37.523438 -37.523438 37.890625 -37.609375 C 38.265625 -37.691406 38.570312 -37.59375 38.8125 -37.3125 C 39.0625 -37.03125 39.1875 -36.578125 39.1875 -35.953125 L 39.1875 -0.984375 C 39.1875 -0.328125 38.859375 0 38.203125 0 L 33.5625 0 C 32.914062 0 32.59375 -0.328125 32.59375 -0.984375 L 32.59375 -20.53125 L 22.109375 -6.921875 C 21.898438 -6.628906 21.671875 -6.484375 21.421875 -6.484375 C 21.179688 -6.484375 20.945312 -6.628906 20.71875 -6.921875 L 10.28125 -20.484375 L 10.28125 -0.984375 C 10.28125 -0.328125 9.957031 0 9.3125 0 Z M 9.3125 0 "/></g></g></g><g fill="#000000" fill-opacity="1"><g transform="translate(294.231676, 281.195197)"><g><path d="M 14.359375 0.859375 C 12.597656 0.859375 10.789062 0.679688 8.9375 0.328125 C 7.082031 -0.015625 5.019531 -0.625 2.75 -1.5 C 2.144531 -1.789062 1.960938 -2.234375 2.203125 -2.828125 L 3.6875 -6.796875 C 3.925781 -7.367188 4.359375 -7.519531 4.984375 -7.25 C 6.742188 -6.414062 8.398438 -5.832031 9.953125 -5.5 C 11.515625 -5.164062 12.925781 -5 14.1875 -5 C 15.9375 -5 17.347656 -5.34375 18.421875 -6.03125 C 19.492188 -6.71875 20.03125 -7.738281 20.03125 -9.09375 C 20.03125 -9.90625 19.785156 -10.632812 19.296875 -11.28125 C 18.804688 -11.925781 18.144531 -12.53125 17.3125 -13.09375 C 16.488281 -13.664062 15.550781 -14.222656 14.5 -14.765625 C 13.457031 -15.316406 12.375 -15.898438 11.25 -16.515625 C 10.132812 -17.117188 9.0625 -17.765625 8.03125 -18.453125 C 7 -19.148438 6.070312 -19.925781 5.25 -20.78125 C 4.425781 -21.632812 3.773438 -22.625 3.296875 -23.75 C 2.816406 -24.875 2.578125 -26.171875 2.578125 -27.640625 C 2.578125 -29.410156 2.898438 -30.925781 3.546875 -32.1875 C 4.191406 -33.445312 5.066406 -34.472656 6.171875 -35.265625 C 7.285156 -36.066406 8.546875 -36.65625 9.953125 -37.03125 C 11.367188 -37.414062 12.851562 -37.609375 14.40625 -37.609375 C 15.851562 -37.609375 17.429688 -37.429688 19.140625 -37.078125 C 20.859375 -36.734375 22.539062 -36.25 24.1875 -35.625 C 24.789062 -35.382812 24.96875 -34.960938 24.71875 -34.359375 L 23.453125 -30.546875 C 23.191406 -29.941406 22.765625 -29.757812 22.171875 -30 C 20.898438 -30.539062 19.601562 -30.960938 18.28125 -31.265625 C 16.957031 -31.566406 15.703125 -31.71875 14.515625 -31.71875 C 13.578125 -31.71875 12.71875 -31.597656 11.9375 -31.359375 C 11.15625 -31.128906 10.53125 -30.75 10.0625 -30.21875 C 9.601562 -29.6875 9.375 -28.984375 9.375 -28.109375 C 9.375 -27.316406 9.578125 -26.601562 9.984375 -25.96875 C 10.390625 -25.34375 10.953125 -24.757812 11.671875 -24.21875 C 12.390625 -23.6875 13.210938 -23.171875 14.140625 -22.671875 C 15.066406 -22.179688 16.054688 -21.675781 17.109375 -21.15625 C 18.253906 -20.539062 19.398438 -19.882812 20.546875 -19.1875 C 21.703125 -18.5 22.753906 -17.703125 23.703125 -16.796875 C 24.648438 -15.898438 25.410156 -14.847656 25.984375 -13.640625 C 26.554688 -12.441406 26.84375 -11.035156 26.84375 -9.421875 C 26.84375 -7.609375 26.5 -6.050781 25.8125 -4.75 C 25.125 -3.445312 24.191406 -2.378906 23.015625 -1.546875 C 21.835938 -0.722656 20.5 -0.117188 19 0.265625 C 17.507812 0.660156 15.960938 0.859375 14.359375 0.859375 Z M 14.359375 0.859375 "/></g></g></g><g clip-path="url(#f6542fe383)"><path fill="#000000" d="M 122.324219 96.46875 C 118.230469 96.46875 115.09375 99.84375 115.09375 103.710938 L 115.09375 200.230469 C 115.09375 204.09375 118.230469 207.46875 122.324219 207.46875 L 252.519531 207.46875 C 256.617188 207.46875 259.753906 204.09375 259.753906 200.230469 L 259.753906 103.710938 C 259.753906 99.84375 256.617188 96.46875 252.519531 96.46875 Z M 122.324219 101.296875 L 252.519531 101.296875 C 253.972656 101.296875 254.933594 102.503906 254.933594 103.710938 L 254.933594 200.230469 C 254.933594 201.683594 253.972656 202.644531 252.519531 202.644531 L 122.324219 202.644531 C 120.875 202.644531 119.914062 201.4375 119.914062 200.230469 L 119.914062 103.710938 C 119.914062 102.257812 120.875 101.296875 122.324219 101.296875 Z M 127.148438 106.121094 C 125.699219 106.121094 124.738281 107.082031 124.738281 108.535156 L 124.738281 113.363281 C 124.738281 114.8125 125.699219 115.773438 127.148438 115.773438 C 128.597656 115.773438 129.558594 114.8125 129.558594 113.363281 L 129.558594 108.535156 C 129.558594 107.082031 128.597656 106.121094 127.148438 106.121094 Z M 139.203125 106.121094 C 137.753906 106.121094 136.792969 107.082031 136.792969 108.535156 L 136.792969 113.363281 C 136.792969 114.8125 137.753906 115.773438 139.203125 115.773438 C 140.652344 115.773438 141.613281 114.8125 141.613281 113.363281 L 141.613281 108.535156 C 141.613281 107.082031 140.652344 106.121094 139.203125 106.121094 Z M 151.257812 106.121094 C 149.808594 106.121094 148.847656 107.082031 148.847656 108.535156 L 148.847656 113.363281 C 148.847656 114.8125 149.808594 115.773438 151.257812 115.773438 C 152.707031 115.773438 153.667969 114.8125 153.667969 113.363281 L 153.667969 108.535156 C 153.667969 107.082031 152.707031 106.121094 151.257812 106.121094 Z M 163.3125 106.121094 C 161.863281 106.121094 160.902344 107.082031 160.902344 108.535156 L 160.902344 113.363281 C 160.902344 114.8125 161.863281 115.773438 163.3125 115.773438 C 164.761719 115.773438 165.722656 114.8125 165.722656 113.363281 L 165.722656 108.535156 C 165.722656 107.082031 164.761719 106.121094 163.3125 106.121094 Z M 175.367188 106.121094 C 173.917969 106.121094 172.957031 107.082031 172.957031 108.535156 L 172.957031 113.363281 C 172.957031 114.8125 173.917969 115.773438 175.367188 115.773438 C 176.820312 115.773438 177.78125 114.8125 177.78125 113.363281 L 177.78125 108.535156 C 177.78125 107.082031 176.820312 106.121094 175.367188 106.121094 Z M 187.421875 106.121094 C 185.972656 106.121094 185.011719 107.082031 185.011719 108.535156 L 185.011719 113.363281 C 185.011719 114.8125 185.972656 115.773438 187.421875 115.773438 C 188.875 115.773438 189.835938 114.8125 189.835938 113.363281 L 189.835938 108.535156 C 189.835938 107.082031 188.875 106.121094 187.421875 106.121094 Z M 199.476562 106.121094 C 198.027344 106.121094 197.066406 107.082031 197.066406 108.535156 L 197.066406 113.363281 C 197.066406 114.8125 198.027344 115.773438 199.476562 115.773438 C 200.929688 115.773438 201.890625 114.8125 201.890625 113.363281 L 201.890625 108.535156 C 201.890625 107.082031 200.929688 106.121094 199.476562 106.121094 Z M 211.535156 106.121094 C 210.082031 106.121094 209.121094 107.082031 209.121094 108.535156 L 209.121094 113.363281 C 209.121094 114.8125 210.082031 115.773438 211.535156 115.773438 C 212.984375 115.773438 213.945312 114.8125 213.945312 113.363281 L 213.945312 108.535156 C 213.945312 107.082031 212.984375 106.121094 211.535156 106.121094 Z M 223.589844 106.121094 C 222.136719 106.121094 221.175781 107.082031 221.175781 108.535156 L 221.175781 113.363281 C 221.175781 114.8125 222.136719 115.773438 223.589844 115.773438 C 225.039062 115.773438 226 114.8125 226 113.363281 L 226 108.535156 C 226 107.082031 225.039062 106.121094 223.589844 106.121094 Z M 235.644531 106.121094 C 234.191406 106.121094 233.234375 107.082031 233.234375 108.535156 L 233.234375 113.363281 C 233.234375 114.8125 234.191406 115.773438 235.644531 115.773438 C 237.09375 115.773438 238.054688 114.8125 238.054688 113.363281 L 238.054688 108.535156 C 238.054688 107.082031 237.09375 106.121094 235.644531 106.121094 Z M 247.699219 106.121094 C 246.25 106.121094 245.289062 107.082031 245.289062 108.535156 L 245.289062 113.363281 C 245.289062 114.8125 246.25 115.773438 247.699219 115.773438 C 249.148438 115.773438 250.109375 114.8125 250.109375 113.363281 L 250.109375 108.535156 C 250.109375 107.082031 249.148438 106.121094 247.699219 106.121094 Z M 127.148438 120.601562 C 125.699219 120.601562 124.738281 121.5625 124.738281 123.011719 C 124.738281 124.464844 125.699219 125.425781 127.148438 125.425781 L 148.847656 125.425781 L 148.847656 178.511719 L 127.148438 178.511719 C 125.699219 178.511719 124.738281 179.476562 124.738281 180.925781 C 124.738281 182.378906 125.699219 183.339844 127.148438 183.339844 L 247.699219 183.339844 C 249.148438 183.339844 250.109375 182.378906 250.109375 180.925781 C 250.109375 179.476562 249.148438 178.511719 247.699219 178.511719 L 226 178.511719 L 226 125.425781 L 247.699219 125.425781 C 249.148438 125.425781 250.109375 124.464844 250.109375 123.011719 C 250.109375 121.5625 249.148438 120.601562 247.699219 120.601562 Z M 153.667969 125.425781 L 221.175781 125.425781 L 221.175781 178.511719 L 153.667969 178.511719 Z M 127.148438 188.164062 C 125.699219 188.164062 124.738281 189.128906 124.738281 190.578125 L 124.738281 195.40625 C 124.738281 196.855469 125.699219 197.816406 127.148438 197.816406 C 128.597656 197.816406 129.558594 196.855469 129.558594 195.40625 L 129.558594 190.578125 C 129.558594 189.128906 128.597656 188.164062 127.148438 188.164062 Z M 139.203125 188.164062 C 137.753906 188.164062 136.792969 189.128906 136.792969 190.578125 L 136.792969 195.40625 C 136.792969 196.855469 137.753906 197.816406 139.203125 197.816406 C 140.652344 197.816406 141.613281 196.855469 141.613281 195.40625 L 141.613281 190.578125 C 141.613281 189.128906 140.652344 188.164062 139.203125 188.164062 Z M 151.257812 188.164062 C 149.808594 188.164062 148.847656 189.128906 148.847656 190.578125 L 148.847656 195.40625 C 148.847656 196.855469 149.808594 197.816406 151.257812 197.816406 C 152.707031 197.816406 153.667969 196.855469 153.667969 195.40625 L 153.667969 190.578125 C 153.667969 189.128906 152.707031 188.164062 151.257812 188.164062 Z M 163.3125 188.164062 C 161.863281 188.164062 160.902344 189.128906 160.902344 190.578125 L 160.902344 195.40625 C 160.902344 196.855469 161.863281 197.816406 163.3125 197.816406 C 164.761719 197.816406 165.722656 196.855469 165.722656 195.40625 L 165.722656 190.578125 C 165.722656 189.128906 164.761719 188.164062 163.3125 188.164062 Z M 175.367188 188.164062 C 173.917969 188.164062 172.957031 189.128906 172.957031 190.578125 L 172.957031 195.40625 C 172.957031 196.855469 173.917969 197.816406 175.367188 197.816406 C 176.820312 197.816406 177.78125 196.855469 177.78125 195.40625 L 177.78125 190.578125 C 177.78125 189.128906 176.820312 188.164062 175.367188 188.164062 Z M 187.421875 188.164062 C 185.972656 188.164062 185.011719 189.128906 185.011719 190.578125 L 185.011719 195.40625 C 185.011719 196.855469 185.972656 197.816406 187.421875 197.816406 C 188.875 197.816406 189.835938 196.855469 189.835938 195.40625 L 189.835938 190.578125 C 189.835938 189.128906 188.875 188.164062 187.421875 188.164062 Z M 199.476562 188.164062 C 198.027344 188.164062 197.066406 189.128906 197.066406 190.578125 L 197.066406 195.40625 C 197.066406 196.855469 198.027344 197.816406 199.476562 197.816406 C 200.929688 197.816406 201.890625 196.855469 201.890625 195.40625 L 201.890625 190.578125 C 201.890625 189.128906 200.929688 188.164062 199.476562 188.164062 Z M 211.535156 188.164062 C 210.082031 188.164062 209.121094 189.128906 209.121094 190.578125 L 209.121094 195.40625 C 209.121094 196.855469 210.082031 197.816406 211.535156 197.816406 C 212.984375 197.816406 213.945312 196.855469 213.945312 195.40625 L 213.945312 190.578125 C 213.945312 189.128906 212.984375 188.164062 211.535156 188.164062 Z M 223.589844 188.164062 C 222.136719 188.164062 221.175781 189.128906 221.175781 190.578125 L 221.175781 195.40625 C 221.175781 196.855469 222.136719 197.816406 223.589844 197.816406 C 225.039062 197.816406 226 196.855469 226 195.40625 L 226 190.578125 C 226 189.128906 225.039062 188.164062 223.589844 188.164062 Z M 235.644531 188.164062 C 234.191406 188.164062 233.234375 189.128906 233.234375 190.578125 L 233.234375 195.40625 C 233.234375 196.855469 234.191406 197.816406 235.644531 197.816406 C 237.09375 197.816406 238.054688 196.855469 238.054688 195.40625 L 238.054688 190.578125 C 238.054688 189.128906 237.09375 188.164062 235.644531 188.164062 Z M 247.699219 188.164062 C 246.25 188.164062 245.289062 189.128906 245.289062 190.578125 L 245.289062 195.40625 C 245.289062 196.855469 246.25 197.816406 247.699219 197.816406 C 249.148438 197.816406 250.109375 196.855469 250.109375 195.40625 L 250.109375 190.578125 C 250.109375 189.128906 249.148438 188.164062 247.699219 188.164062 Z M 247.699219 188.164062 " fill-opacity="1" fill-rule="nonzero"/></g><g clip-path="url(#3588844aaa)"><g clip-path="url(#bafa372f2b)"><path fill="#000000" d="M 132.808594 132.367188 L 132.808594 171.363281 L 152.308594 171.363281 L 152.308594 132.367188 Z M 132.808594 132.367188 " fill-opacity="1" fill-rule="nonzero"/></g></g><g clip-path="url(#1ab72cbcc5)"><g clip-path="url(#3ae1e48bf0)"><path fill="#000000" d="M 242.019531 132.367188 L 242.019531 171.363281 L 222.636719 171.363281 L 222.636719 132.367188 Z M 242.019531 132.367188 " fill-opacity="1" fill-rule="nonzero"/></g></g><path stroke-linecap="round" transform="matrix(-0.596169, 0.455064, -0.455064, -0.596169, 223.88542, 126.475772)" fill="none" stroke-linejoin="miter" d="M 2.999973 3.002792 L 114.561294 2.999398 " stroke="#000000" stroke-width="6" stroke-opacity="1" stroke-miterlimit="4"/></svg>