<svg xmlns="http://www.w3.org/2000/svg" xmlns:xlink="http://www.w3.org/1999/xlink" width="500" zoomAndPan="magnify" viewBox="0 0 375 374.999991" height="500" preserveAspectRatio="xMidYMid meet" version="1.0"><defs><clipPath id="9db92d6180"><path d="M 37.5 72.5625 L 337.183594 72.5625 L 337.183594 302.371094 L 37.5 302.371094 Z M 37.5 72.5625 " clip-rule="nonzero"/></clipPath><clipPath id="bd89c9ec93"><path d="M 74.273438 146.871094 L 114.644531 146.871094 L 114.644531 227.617188 L 74.273438 227.617188 Z M 74.273438 146.871094 " clip-rule="nonzero"/></clipPath><clipPath id="80c8bf892b"><path d="M 114.890625 218.5625 L 114.890625 228.117188 C 92.453125 228.117188 74.273438 209.9375 74.273438 187.503906 C 74.273438 165.070312 92.453125 146.886719 114.890625 146.886719 L 114.890625 156.4375 C 97.738281 156.4375 83.828125 170.34375 83.828125 187.503906 C 83.828125 204.65625 97.734375 218.5625 114.890625 218.5625 Z M 114.890625 218.5625 " clip-rule="nonzero"/></clipPath><clipPath id="88884fd035"><path d="M 260.246094 146.871094 L 300.375 146.871094 L 300.375 227.617188 L 260.246094 227.617188 Z M 260.246094 146.871094 " clip-rule="nonzero"/></clipPath><clipPath id="57e24fba74"><path d="M 260 218.5625 L 260 228.117188 C 282.4375 228.117188 300.617188 209.9375 300.617188 187.503906 C 300.617188 165.070312 282.4375 146.886719 260 146.886719 L 260 156.4375 C 277.152344 156.4375 291.066406 170.34375 291.066406 187.503906 C 291.066406 204.65625 277.160156 218.5625 260 218.5625 Z M 260 218.5625 " clip-rule="nonzero"/></clipPath></defs><rect x="-37.5" width="450" fill="#ffffff" y="-37.499999" height="449.999989" fill-opacity="1"/><rect x="-37.5" width="450" fill="#ffffff" y="-37.499999" height="449.999989" fill-opacity="1"/><g clip-path="url(#9db92d6180)"><path fill="#000000" d="M 52.566406 72.5625 C 44.085938 72.5625 37.59375 79.550781 37.59375 87.550781 L 37.59375 287.382812 C 37.59375 295.382812 44.085938 302.371094 52.566406 302.371094 L 322.117188 302.371094 C 330.597656 302.371094 337.089844 295.382812 337.089844 287.382812 L 337.089844 87.550781 C 337.089844 79.550781 330.597656 72.5625 322.117188 72.5625 Z M 52.566406 82.554688 L 322.117188 82.554688 C 325.117188 82.554688 327.105469 85.050781 327.105469 87.550781 L 327.105469 287.382812 C 327.105469 290.390625 325.117188 292.378906 322.117188 292.378906 L 52.566406 292.378906 C 49.5625 292.378906 47.574219 289.882812 47.574219 287.382812 L 47.574219 87.550781 C 47.574219 84.542969 49.5625 82.554688 52.566406 82.554688 Z M 62.550781 92.546875 C 59.546875 92.546875 57.558594 94.535156 57.558594 97.542969 L 57.558594 107.535156 C 57.558594 110.539062 59.546875 112.527344 62.550781 112.527344 C 65.554688 112.527344 67.542969 110.539062 67.542969 107.535156 L 67.542969 97.542969 C 67.542969 94.535156 65.554688 92.546875 62.550781 92.546875 Z M 87.507812 92.546875 C 84.503906 92.546875 82.515625 94.535156 82.515625 97.542969 L 82.515625 107.535156 C 82.515625 110.539062 84.503906 112.527344 87.507812 112.527344 C 90.511719 112.527344 92.5 110.539062 92.5 107.535156 L 92.5 97.542969 C 92.5 94.535156 90.511719 92.546875 87.507812 92.546875 Z M 112.464844 92.546875 C 109.464844 92.546875 107.476562 94.535156 107.476562 97.542969 L 107.476562 107.535156 C 107.476562 110.539062 109.464844 112.527344 112.464844 112.527344 C 115.46875 112.527344 117.457031 110.539062 117.457031 107.535156 L 117.457031 97.542969 C 117.457031 94.535156 115.46875 92.546875 112.464844 92.546875 Z M 137.425781 92.546875 C 134.421875 92.546875 132.433594 94.535156 132.433594 97.542969 L 132.433594 107.535156 C 132.433594 110.539062 134.421875 112.527344 137.425781 112.527344 C 140.429688 112.527344 142.417969 110.539062 142.417969 107.535156 L 142.417969 97.542969 C 142.417969 94.535156 140.429688 92.546875 137.425781 92.546875 Z M 162.382812 92.546875 C 159.378906 92.546875 157.390625 94.535156 157.390625 97.542969 L 157.390625 107.535156 C 157.390625 110.539062 159.378906 112.527344 162.382812 112.527344 C 165.386719 112.527344 167.375 110.539062 167.375 107.535156 L 167.375 97.542969 C 167.375 94.535156 165.386719 92.546875 162.382812 92.546875 Z M 187.339844 92.546875 C 184.339844 92.546875 182.351562 94.535156 182.351562 97.542969 L 182.351562 107.535156 C 182.351562 110.539062 184.339844 112.527344 187.339844 112.527344 C 190.34375 112.527344 192.332031 110.539062 192.332031 107.535156 L 192.332031 97.542969 C 192.332031 94.535156 190.34375 92.546875 187.339844 92.546875 Z M 212.300781 92.546875 C 209.296875 92.546875 207.308594 94.535156 207.308594 97.542969 L 207.308594 107.535156 C 207.308594 110.539062 209.296875 112.527344 212.300781 112.527344 C 215.300781 112.527344 217.292969 110.539062 217.292969 107.535156 L 217.292969 97.542969 C 217.292969 94.535156 215.300781 92.546875 212.300781 92.546875 Z M 237.257812 92.546875 C 234.253906 92.546875 232.265625 94.535156 232.265625 97.542969 L 232.265625 107.535156 C 232.265625 110.539062 234.253906 112.527344 237.257812 112.527344 C 240.261719 112.527344 242.25 110.539062 242.25 107.535156 L 242.25 97.542969 C 242.25 94.535156 240.261719 92.546875 237.257812 92.546875 Z M 262.214844 92.546875 C 259.214844 92.546875 257.222656 94.535156 257.222656 97.542969 L 257.222656 107.535156 C 257.222656 110.539062 259.214844 112.527344 262.214844 112.527344 C 265.21875 112.527344 267.207031 110.539062 267.207031 107.535156 L 267.207031 97.542969 C 267.207031 94.535156 265.21875 92.546875 262.214844 92.546875 Z M 287.175781 92.546875 C 284.171875 92.546875 282.183594 94.535156 282.183594 97.542969 L 282.183594 107.535156 C 282.183594 110.539062 284.171875 112.527344 287.175781 112.527344 C 290.175781 112.527344 292.164062 110.539062 292.164062 107.535156 L 292.164062 97.542969 C 292.164062 94.535156 290.175781 92.546875 287.175781 92.546875 Z M 312.132812 92.546875 C 309.128906 92.546875 307.140625 94.535156 307.140625 97.542969 L 307.140625 107.535156 C 307.140625 110.539062 309.128906 112.527344 312.132812 112.527344 C 315.136719 112.527344 317.125 110.539062 317.125 107.535156 L 317.125 97.542969 C 317.125 94.535156 315.136719 92.546875 312.132812 92.546875 Z M 62.550781 122.519531 C 59.546875 122.519531 57.558594 124.511719 57.558594 127.515625 C 57.558594 130.523438 59.546875 132.511719 62.550781 132.511719 L 107.476562 132.511719 L 107.476562 242.421875 L 62.550781 242.421875 C 59.546875 242.421875 57.558594 244.410156 57.558594 247.417969 C 57.558594 250.421875 59.546875 252.414062 62.550781 252.414062 L 312.132812 252.414062 C 315.136719 252.414062 317.125 250.421875 317.125 247.417969 C 317.125 244.410156 315.136719 242.421875 312.132812 242.421875 L 267.207031 242.421875 L 267.207031 132.511719 L 312.132812 132.511719 C 315.136719 132.511719 317.125 130.523438 317.125 127.515625 C 317.125 124.511719 315.136719 122.519531 312.132812 122.519531 Z M 117.457031 132.511719 L 257.222656 132.511719 L 257.222656 242.421875 L 117.457031 242.421875 Z M 62.550781 262.40625 C 59.546875 262.40625 57.558594 264.394531 57.558594 267.398438 L 57.558594 277.390625 C 57.558594 280.398438 59.546875 282.386719 62.550781 282.386719 C 65.554688 282.386719 67.542969 280.398438 67.542969 277.390625 L 67.542969 267.398438 C 67.542969 264.394531 65.554688 262.40625 62.550781 262.40625 Z M 87.507812 262.40625 C 84.503906 262.40625 82.515625 264.394531 82.515625 267.398438 L 82.515625 277.390625 C 82.515625 280.398438 84.503906 282.386719 87.507812 282.386719 C 90.511719 282.386719 92.5 280.398438 92.5 277.390625 L 92.5 267.398438 C 92.5 264.394531 90.511719 262.40625 87.507812 262.40625 Z M 112.464844 262.40625 C 109.464844 262.40625 107.476562 264.394531 107.476562 267.398438 L 107.476562 277.390625 C 107.476562 280.398438 109.464844 282.386719 112.464844 282.386719 C 115.46875 282.386719 117.457031 280.398438 117.457031 277.390625 L 117.457031 267.398438 C 117.457031 264.394531 115.46875 262.40625 112.464844 262.40625 Z M 137.425781 262.40625 C 134.421875 262.40625 132.433594 264.394531 132.433594 267.398438 L 132.433594 277.390625 C 132.433594 280.398438 134.421875 282.386719 137.425781 282.386719 C 140.429688 282.386719 142.417969 280.398438 142.417969 277.390625 L 142.417969 267.398438 C 142.417969 264.394531 140.429688 262.40625 137.425781 262.40625 Z M 162.382812 262.40625 C 159.378906 262.40625 157.390625 264.394531 157.390625 267.398438 L 157.390625 277.390625 C 157.390625 280.398438 159.378906 282.386719 162.382812 282.386719 C 165.386719 282.386719 167.375 280.398438 167.375 277.390625 L 167.375 267.398438 C 167.375 264.394531 165.386719 262.40625 162.382812 262.40625 Z M 187.339844 262.40625 C 184.339844 262.40625 182.351562 264.394531 182.351562 267.398438 L 182.351562 277.390625 C 182.351562 280.398438 184.339844 282.386719 187.339844 282.386719 C 190.34375 282.386719 192.332031 280.398438 192.332031 277.390625 L 192.332031 267.398438 C 192.332031 264.394531 190.34375 262.40625 187.339844 262.40625 Z M 212.300781 262.40625 C 209.296875 262.40625 207.308594 264.394531 207.308594 267.398438 L 207.308594 277.390625 C 207.308594 280.398438 209.296875 282.386719 212.300781 282.386719 C 215.300781 282.386719 217.292969 280.398438 217.292969 277.390625 L 217.292969 267.398438 C 217.292969 264.394531 215.300781 262.40625 212.300781 262.40625 Z M 237.257812 262.40625 C 234.253906 262.40625 232.265625 264.394531 232.265625 267.398438 L 232.265625 277.390625 C 232.265625 280.398438 234.253906 282.386719 237.257812 282.386719 C 240.261719 282.386719 242.25 280.398438 242.25 277.390625 L 242.25 267.398438 C 242.25 264.394531 240.261719 262.40625 237.257812 262.40625 Z M 262.214844 262.40625 C 259.214844 262.40625 257.222656 264.394531 257.222656 267.398438 L 257.222656 277.390625 C 257.222656 280.398438 259.214844 282.386719 262.214844 282.386719 C 265.21875 282.386719 267.207031 280.398438 267.207031 277.390625 L 267.207031 267.398438 C 267.207031 264.394531 265.21875 262.40625 262.214844 262.40625 Z M 287.175781 262.40625 C 284.171875 262.40625 282.183594 264.394531 282.183594 267.398438 L 282.183594 277.390625 C 282.183594 280.398438 284.171875 282.386719 287.175781 282.386719 C 290.175781 282.386719 292.164062 280.398438 292.164062 277.390625 L 292.164062 267.398438 C 292.164062 264.394531 290.175781 262.40625 287.175781 262.40625 Z M 312.132812 262.40625 C 309.128906 262.40625 307.140625 264.394531 307.140625 267.398438 L 307.140625 277.390625 C 307.140625 280.398438 309.128906 282.386719 312.132812 282.386719 C 315.136719 282.386719 317.125 280.398438 317.125 277.390625 L 317.125 267.398438 C 317.125 264.394531 315.136719 262.40625 312.132812 262.40625 Z M 312.132812 262.40625 " fill-opacity="1" fill-rule="nonzero"/></g><g clip-path="url(#bd89c9ec93)"><g clip-path="url(#80c8bf892b)"><path fill="#000000" d="M 74.273438 146.886719 L 74.273438 227.617188 L 114.644531 227.617188 L 114.644531 146.886719 Z M 74.273438 146.886719 " fill-opacity="1" fill-rule="nonzero"/></g></g><g clip-path="url(#88884fd035)"><g clip-path="url(#57e24fba74)"><path fill="#000000" d="M 300.375 146.886719 L 300.375 227.617188 L 260.246094 227.617188 L 260.246094 146.886719 Z M 300.375 146.886719 " fill-opacity="1" fill-rule="nonzero"/></g></g><path stroke-linecap="round" transform="matrix(-1.234276, 0.94214, -0.94214, -1.234276, 262.830455, 134.684581)" fill="none" stroke-linejoin="miter" d="M 3.000383 2.999951 L 114.562247 3.001091 " stroke="#000000" stroke-width="6" stroke-opacity="1" stroke-miterlimit="4"/></svg>