<svg xmlns="http://www.w3.org/2000/svg" xmlns:xlink="http://www.w3.org/1999/xlink" width="500" zoomAndPan="magnify" viewBox="0 0 375 374.999991" height="500" preserveAspectRatio="xMidYMid meet" version="1.0"><defs><clipPath id="40512ea57b"><path d="M 37.5 72.5625 L 337.183594 72.5625 L 337.183594 302.371094 L 37.5 302.371094 Z M 37.5 72.5625 " clip-rule="nonzero"/></clipPath><clipPath id="becad84091"><path d="M 74.273438 146.871094 L 114.644531 146.871094 L 114.644531 227.617188 L 74.273438 227.617188 Z M 74.273438 146.871094 " clip-rule="nonzero"/></clipPath><clipPath id="6563ee63d7"><path d="M 114.890625 218.5625 L 114.890625 228.117188 C 92.453125 228.117188 74.273438 209.9375 74.273438 187.503906 C 74.273438 165.070312 92.453125 146.886719 114.890625 146.886719 L 114.890625 156.4375 C 97.738281 156.4375 83.828125 170.34375 83.828125 187.503906 C 83.828125 204.65625 97.734375 218.5625 114.890625 218.5625 Z M 114.890625 218.5625 " clip-rule="nonzero"/></clipPath><clipPath id="8b19d42374"><path d="M 260.246094 146.871094 L 300.375 146.871094 L 300.375 227.617188 L 260.246094 227.617188 Z M 260.246094 146.871094 " clip-rule="nonzero"/></clipPath><clipPath id="44caca48ff"><path d="M 260 218.5625 L 260 228.117188 C 282.4375 228.117188 300.617188 209.9375 300.617188 187.503906 C 300.617188 165.070312 282.4375 146.886719 260 146.886719 L 260 156.4375 C 277.152344 156.4375 291.066406 170.34375 291.066406 187.503906 C 291.066406 204.65625 277.160156 218.5625 260 218.5625 Z M 260 218.5625 " clip-rule="nonzero"/></clipPath></defs><rect x="-37.5" width="450" fill="#ffffff" y="-37.499999" height="449.999989" fill-opacity="1"/><rect x="-37.5" width="450" fill="#000000" y="-37.499999" height="449.999989" fill-opacity="1"/><g clip-path="url(#40512ea57b)"><path fill="#ffffff" d="M 52.582031 72.5625 C 44.09375 72.5625 37.59375 79.550781 37.59375 87.554688 L 37.59375 287.429688 C 37.59375 295.433594 44.09375 302.417969 52.582031 302.417969 L 322.414062 302.417969 C 330.90625 302.417969 337.40625 295.433594 337.40625 287.429688 L 337.40625 87.554688 C 337.40625 79.550781 330.90625 72.5625 322.414062 72.5625 Z M 52.582031 82.554688 L 322.414062 82.554688 C 325.421875 82.554688 327.410156 85.054688 327.410156 87.554688 L 327.410156 287.429688 C 327.410156 290.433594 325.421875 292.425781 322.414062 292.425781 L 52.582031 292.425781 C 49.578125 292.425781 47.585938 289.925781 47.585938 287.429688 L 47.585938 87.554688 C 47.585938 84.546875 49.578125 82.554688 52.582031 82.554688 Z M 62.578125 92.550781 C 59.570312 92.550781 57.578125 94.542969 57.578125 97.546875 L 57.578125 107.539062 C 57.578125 110.546875 59.570312 112.539062 62.578125 112.539062 C 65.582031 112.539062 67.574219 110.546875 67.574219 107.539062 L 67.574219 97.546875 C 67.574219 94.542969 65.582031 92.550781 62.578125 92.550781 Z M 87.5625 92.550781 C 84.554688 92.550781 82.5625 94.542969 82.5625 97.546875 L 82.5625 107.539062 C 82.5625 110.546875 84.554688 112.539062 87.5625 112.539062 C 90.566406 112.539062 92.558594 110.546875 92.558594 107.539062 L 92.558594 97.546875 C 92.558594 94.542969 90.566406 92.550781 87.5625 92.550781 Z M 112.546875 92.550781 C 109.539062 92.550781 107.546875 94.542969 107.546875 97.546875 L 107.546875 107.539062 C 107.546875 110.546875 109.539062 112.539062 112.546875 112.539062 C 115.550781 112.539062 117.542969 110.546875 117.542969 107.539062 L 117.542969 97.546875 C 117.542969 94.542969 115.550781 92.550781 112.546875 92.550781 Z M 137.53125 92.550781 C 134.523438 92.550781 132.535156 94.542969 132.535156 97.546875 L 132.535156 107.539062 C 132.535156 110.546875 134.523438 112.539062 137.53125 112.539062 C 140.535156 112.539062 142.527344 110.546875 142.527344 107.539062 L 142.527344 97.546875 C 142.527344 94.542969 140.535156 92.550781 137.53125 92.550781 Z M 162.515625 92.550781 C 159.507812 92.550781 157.519531 94.542969 157.519531 97.546875 L 157.519531 107.539062 C 157.519531 110.546875 159.507812 112.539062 162.515625 112.539062 C 165.519531 112.539062 167.511719 110.546875 167.511719 107.539062 L 167.511719 97.546875 C 167.511719 94.542969 165.519531 92.550781 162.515625 92.550781 Z M 187.5 92.550781 C 184.492188 92.550781 182.503906 94.542969 182.503906 97.546875 L 182.503906 107.539062 C 182.503906 110.546875 184.492188 112.539062 187.5 112.539062 C 190.503906 112.539062 192.496094 110.546875 192.496094 107.539062 L 192.496094 97.546875 C 192.496094 94.542969 190.503906 92.550781 187.5 92.550781 Z M 212.484375 92.550781 C 209.476562 92.550781 207.488281 94.542969 207.488281 97.546875 L 207.488281 107.539062 C 207.488281 110.546875 209.476562 112.539062 212.484375 112.539062 C 215.488281 112.539062 217.480469 110.546875 217.480469 107.539062 L 217.480469 97.546875 C 217.480469 94.542969 215.488281 92.550781 212.484375 92.550781 Z M 237.46875 92.550781 C 234.460938 92.550781 232.472656 94.542969 232.472656 97.546875 L 232.472656 107.539062 C 232.472656 110.546875 234.460938 112.539062 237.46875 112.539062 C 240.472656 112.539062 242.464844 110.546875 242.464844 107.539062 L 242.464844 97.546875 C 242.464844 94.542969 240.472656 92.550781 237.46875 92.550781 Z M 262.453125 92.550781 C 259.445312 92.550781 257.457031 94.542969 257.457031 97.546875 L 257.457031 107.539062 C 257.457031 110.546875 259.445312 112.539062 262.453125 112.539062 C 265.457031 112.539062 267.449219 110.546875 267.449219 107.539062 L 267.449219 97.546875 C 267.449219 94.542969 265.457031 92.550781 262.453125 92.550781 Z M 287.4375 92.550781 C 284.429688 92.550781 282.441406 94.542969 282.441406 97.546875 L 282.441406 107.539062 C 282.441406 110.546875 284.429688 112.539062 287.4375 112.539062 C 290.441406 112.539062 292.433594 110.546875 292.433594 107.539062 L 292.433594 97.546875 C 292.433594 94.542969 290.441406 92.550781 287.4375 92.550781 Z M 312.421875 92.550781 C 309.414062 92.550781 307.425781 94.542969 307.425781 97.546875 L 307.425781 107.539062 C 307.425781 110.546875 309.414062 112.539062 312.421875 112.539062 C 315.425781 112.539062 317.417969 110.546875 317.417969 107.539062 L 317.417969 97.546875 C 317.417969 94.542969 315.425781 92.550781 312.421875 92.550781 Z M 62.578125 122.53125 C 59.570312 122.53125 57.578125 124.523438 57.578125 127.527344 C 57.578125 130.535156 59.570312 132.523438 62.578125 132.523438 L 107.546875 132.523438 L 107.546875 242.457031 L 62.578125 242.457031 C 59.570312 242.457031 57.578125 244.449219 57.578125 247.453125 C 57.578125 250.460938 59.570312 252.449219 62.578125 252.449219 L 312.421875 252.449219 C 315.425781 252.449219 317.417969 250.460938 317.417969 247.453125 C 317.417969 244.449219 315.425781 242.457031 312.421875 242.457031 L 267.449219 242.457031 L 267.449219 132.523438 L 312.421875 132.523438 C 315.425781 132.523438 317.417969 130.535156 317.417969 127.527344 C 317.417969 124.523438 315.425781 122.53125 312.421875 122.53125 Z M 117.542969 132.523438 L 257.457031 132.523438 L 257.457031 242.457031 L 117.542969 242.457031 Z M 62.578125 262.445312 C 59.570312 262.445312 57.578125 264.433594 57.578125 267.441406 L 57.578125 277.433594 C 57.578125 280.441406 59.570312 282.433594 62.578125 282.433594 C 65.582031 282.433594 67.574219 280.441406 67.574219 277.433594 L 67.574219 267.441406 C 67.574219 264.433594 65.582031 262.445312 62.578125 262.445312 Z M 87.5625 262.445312 C 84.554688 262.445312 82.5625 264.433594 82.5625 267.441406 L 82.5625 277.433594 C 82.5625 280.441406 84.554688 282.433594 87.5625 282.433594 C 90.566406 282.433594 92.558594 280.441406 92.558594 277.433594 L 92.558594 267.441406 C 92.558594 264.433594 90.566406 262.445312 87.5625 262.445312 Z M 112.546875 262.445312 C 109.539062 262.445312 107.546875 264.433594 107.546875 267.441406 L 107.546875 277.433594 C 107.546875 280.441406 109.539062 282.433594 112.546875 282.433594 C 115.550781 282.433594 117.542969 280.441406 117.542969 277.433594 L 117.542969 267.441406 C 117.542969 264.433594 115.550781 262.445312 112.546875 262.445312 Z M 137.53125 262.445312 C 134.523438 262.445312 132.535156 264.433594 132.535156 267.441406 L 132.535156 277.433594 C 132.535156 280.441406 134.523438 282.433594 137.53125 282.433594 C 140.535156 282.433594 142.527344 280.441406 142.527344 277.433594 L 142.527344 267.441406 C 142.527344 264.433594 140.535156 262.445312 137.53125 262.445312 Z M 162.515625 262.445312 C 159.507812 262.445312 157.519531 264.433594 157.519531 267.441406 L 157.519531 277.433594 C 157.519531 280.441406 159.507812 282.433594 162.515625 282.433594 C 165.519531 282.433594 167.511719 280.441406 167.511719 277.433594 L 167.511719 267.441406 C 167.511719 264.433594 165.519531 262.445312 162.515625 262.445312 Z M 187.5 262.445312 C 184.492188 262.445312 182.503906 264.433594 182.503906 267.441406 L 182.503906 277.433594 C 182.503906 280.441406 184.492188 282.433594 187.5 282.433594 C 190.503906 282.433594 192.496094 280.441406 192.496094 277.433594 L 192.496094 267.441406 C 192.496094 264.433594 190.503906 262.445312 187.5 262.445312 Z M 212.484375 262.445312 C 209.476562 262.445312 207.488281 264.433594 207.488281 267.441406 L 207.488281 277.433594 C 207.488281 280.441406 209.476562 282.433594 212.484375 282.433594 C 215.488281 282.433594 217.480469 280.441406 217.480469 277.433594 L 217.480469 267.441406 C 217.480469 264.433594 215.488281 262.445312 212.484375 262.445312 Z M 237.46875 262.445312 C 234.460938 262.445312 232.472656 264.433594 232.472656 267.441406 L 232.472656 277.433594 C 232.472656 280.441406 234.460938 282.433594 237.46875 282.433594 C 240.472656 282.433594 242.464844 280.441406 242.464844 277.433594 L 242.464844 267.441406 C 242.464844 264.433594 240.472656 262.445312 237.46875 262.445312 Z M 262.453125 262.445312 C 259.445312 262.445312 257.457031 264.433594 257.457031 267.441406 L 257.457031 277.433594 C 257.457031 280.441406 259.445312 282.433594 262.453125 282.433594 C 265.457031 282.433594 267.449219 280.441406 267.449219 277.433594 L 267.449219 267.441406 C 267.449219 264.433594 265.457031 262.445312 262.453125 262.445312 Z M 287.4375 262.445312 C 284.429688 262.445312 282.441406 264.433594 282.441406 267.441406 L 282.441406 277.433594 C 282.441406 280.441406 284.429688 282.433594 287.4375 282.433594 C 290.441406 282.433594 292.433594 280.441406 292.433594 277.433594 L 292.433594 267.441406 C 292.433594 264.433594 290.441406 262.445312 287.4375 262.445312 Z M 312.421875 262.445312 C 309.414062 262.445312 307.425781 264.433594 307.425781 267.441406 L 307.425781 277.433594 C 307.425781 280.441406 309.414062 282.433594 312.421875 282.433594 C 315.425781 282.433594 317.417969 280.441406 317.417969 277.433594 L 317.417969 267.441406 C 317.417969 264.433594 315.425781 262.445312 312.421875 262.445312 Z M 312.421875 262.445312 " fill-opacity="1" fill-rule="nonzero"/></g><g clip-path="url(#becad84091)"><g clip-path="url(#6563ee63d7)"><path fill="#ffffff" d="M 74.273438 146.886719 L 74.273438 227.617188 L 114.644531 227.617188 L 114.644531 146.886719 Z M 74.273438 146.886719 " fill-opacity="1" fill-rule="nonzero"/></g></g><g clip-path="url(#8b19d42374)"><g clip-path="url(#44caca48ff)"><path fill="#ffffff" d="M 300.375 146.886719 L 300.375 227.617188 L 260.246094 227.617188 L 260.246094 146.886719 Z M 300.375 146.886719 " fill-opacity="1" fill-rule="nonzero"/></g></g><path stroke-linecap="round" transform="matrix(-1.234276, 0.94214, -0.94214, -1.234276, 262.830455, 134.684641)" fill="none" stroke-linejoin="miter" d="M 3.00036 2.999981 L 114.562224 3.001121 " stroke="#ffffff" stroke-width="6" stroke-opacity="1" stroke-miterlimit="4"/></svg>